Coordinates
version=1
nRows=20
nColumns=63
inDegrees=yes

Units are S.I. units (second, meters, Newtons, ...)
If the header above contains a line with 'inDegrees', this indicates whether rotational values are in degrees (yes) or radians (no).

endheader
time	pelvis_tilt	pelvis_list	pelvis_rotation	pelvis_tx	pelvis_ty	pelvis_tz	hip_flexion_r	hip_adduction_r	hip_rotation_r	knee_angle_r	knee_angle_r_beta	ankle_angle_r	subtalar_angle_r	mtp_angle_r	hip_flexion_l	hip_adduction_l	hip_rotation_l	knee_angle_l	knee_angle_l_beta	ankle_angle_l	subtalar_angle_l	mtp_angle_l	L5_S1_Flex_Ext	L5_S1_Lat_Bending	L5_S1_axial_rotation	L4_L5_Flex_Ext	L4_L5_Lat_Bending	L4_L5_axial_rotation	L3_L4_Flex_Ext	L3_L4_Lat_Bending	L3_L4_axial_rotation	L2_L3_Flex_Ext	L2_L3_Lat_Bending	L2_L3_axial_rotation	L1_L2_Flex_Ext	L1_L2_Lat_Bending	L1_L2_axial_rotation	L1_T12_Flex_Ext	L1_T12_Lat_Bending	L1_T12_axial_rotation	Abs_r3	Abs_r2	Abs_r1	Abs_t1	Abs_t2	neck_flexion	neck_bending	neck_rotation	arm_flex_r	arm_add_r	arm_rot_r	elbow_flex_r	pro_sup_r	wrist_flex_r	wrist_dev_r	arm_flex_l	arm_add_l	arm_rot_l	elbow_flex_l	pro_sup_l	wrist_flex_l	wrist_dev_l
1.266667	1.787426	-8.562903	85.798030	0.165803	1.012535	0.441538	9.327744	0.417150	-9.534123	10.634037	0.185599	22.627315	7.960675	0.000000	8.889416	-1.457080	-3.764934	6.631127	0.115735	25.266103	3.019434	0.000000	0.186648	0.386280	1.267977	0.346625	0.513753	1.347226	0.306644	0.939202	1.347226	0.213320	0.939202	1.109480	0.173322	0.787703	1.030232	0.106651	0.598348	0.950983	1.333210	4.369680	7.052110	0.000000	0.000000	23.891530	-0.148430	2.546113	10.070202	-10.908203	56.729936	46.505704	29.572493	-4.080654	0.024793	26.414464	12.886686	144.753086	0.623136	0.674454	37.730591	-25.369911
1.283333	1.963917	-8.534579	86.018496	0.165377	1.012771	0.441118	9.196567	0.579098	-9.520879	10.507651	0.183393	22.700687	7.869549	0.000000	8.924808	-1.585656	-3.397500	6.781290	0.118356	25.419338	2.727393	0.000000	0.192709	0.399753	1.224326	0.357881	0.531672	1.300846	0.316602	0.971960	1.300846	0.220248	0.971960	1.071285	0.178950	0.815176	0.994765	0.110114	0.619217	0.918244	1.376504	4.522087	6.809333	0.000000	0.000000	23.775198	0.047201	2.172387	9.484079	-11.683291	53.502435	49.179487	28.688956	-5.310882	0.455429	26.566701	13.595248	146.144865	0.619416	0.713385	40.764126	-25.012499
1.300000	2.123049	-8.513138	86.279521	0.164964	1.012955	0.440718	9.075396	0.714315	-9.609213	10.376384	0.181102	22.796881	7.882401	0.000000	8.969687	-1.698720	-3.019754	6.933214	0.121007	25.489553	2.401777	0.000000	0.198835	0.411222	1.173219	0.369256	0.546925	1.246546	0.326666	0.999844	1.246546	0.227248	0.999844	1.026567	0.184638	0.838563	0.953241	0.113614	0.636982	0.879914	1.420257	4.651821	6.525094	0.000000	0.000000	23.681057	0.272928	1.852550	9.029140	-12.217085	52.811414	50.979612	27.017720	-6.237381	0.639524	26.543029	14.130066	147.751112	0.612184	0.747680	42.742385	-24.636619
1.316667	2.269070	-8.503602	86.569839	0.164559	1.013088	0.440427	8.986541	0.827220	-9.781744	10.261392	0.179095	22.915117	7.986177	0.000000	9.059252	-1.798358	-2.608286	7.137671	0.124576	25.495550	1.990358	0.000000	0.205388	0.421365	1.118181	0.381426	0.560415	1.188067	0.337432	1.024507	1.188067	0.234738	1.024507	0.978408	0.190723	0.859248	0.908522	0.117359	0.652694	0.838636	1.467065	4.766565	6.218987	0.000000	0.000000	23.600254	0.503633	1.560474	8.794818	-12.444344	54.870865	51.738517	24.334499	-6.511577	0.523035	26.369645	14.510411	149.371577	0.600439	0.771787	43.693119	-24.450370
1.333333	2.392861	-8.498045	86.878604	0.164205	1.013186	0.440291	8.930820	0.914099	-10.001200	10.171887	0.177533	23.056971	8.140656	0.000000	9.193396	-1.879640	-2.209308	7.405616	0.129252	25.460790	1.563532	0.000000	0.211252	0.429028	1.060050	0.392317	0.570607	1.126303	0.347066	1.043138	1.126303	0.241440	1.043138	0.927544	0.196169	0.874873	0.861291	0.120710	0.664564	0.795037	1.508954	4.853247	5.895679	0.000000	0.000000	23.520525	0.733125	1.311405	8.887740	-12.315530	59.058054	51.554744	20.716479	-6.049409	0.144297	26.081841	14.746230	150.823037	0.586415	0.787905	43.904163	-24.414953
1.350000	2.558888	-8.502824	87.205277	0.163691	1.013145	0.440302	8.913444	1.027970	-10.280353	10.116481	0.176566	23.222131	8.357757	0.000000	9.379456	-1.995183	-1.783930	7.744442	0.135166	25.449197	1.090414	0.000000	0.215480	0.444050	1.009426	0.400167	0.590586	1.072515	0.354012	1.079662	1.072515	0.246272	1.079662	0.883247	0.200094	0.905506	0.820158	0.123125	0.687833	0.757069	1.539150	5.023178	5.614122	0.000000	0.000000	23.508642	0.907464	1.077225	8.842940	-12.578604	59.276489	52.011829	20.401055	-5.908641	0.941844	25.718300	14.928377	152.020646	0.574176	0.801946	43.599276	-24.407951
1.366667	2.837358	-8.471874	87.524677	0.162676	1.013272	0.440524	8.880994	1.208812	-10.727321	10.079459	0.175920	23.334335	8.791877	0.000000	9.575037	-2.177040	-1.218302	8.156425	0.142356	25.410825	0.387142	0.000000	0.214966	0.475634	1.015511	0.399214	0.632593	1.078980	0.353168	1.156456	1.078980	0.245685	1.156456	0.888572	0.199618	0.969912	0.825103	0.122832	0.736756	0.761633	1.535483	5.380463	5.647967	0.000000	0.000000	23.472857	0.872429	0.471516	8.696850	-12.949577	59.314253	52.261438	20.224149	-5.633566	1.963849	25.946383	16.184405	158.483381	-2.334866	-2.799234	45.498160	-26.510969
1.383333	3.039928	-8.475054	87.838129	0.161975	1.013166	0.440772	8.913312	1.337106	-11.063359	10.097480	0.176234	23.493272	9.051699	0.000000	9.844008	-2.319438	-0.865029	8.646472	0.150909	25.439396	-0.038153	0.000000	0.215981	0.498299	0.997961	0.401098	0.662738	1.060333	0.354835	1.211565	1.060333	0.246844	1.211565	0.873216	0.200560	1.016132	0.810843	0.123411	0.771866	0.748471	1.542729	5.636864	5.550358	0.000000	0.000000	23.542208	0.893288	0.155442	8.720891	-13.108940	59.999984	52.126612	20.074860	-5.190568	2.871737	25.751059	16.708487	161.603433	-3.597117	-4.274982	45.829034	-27.437184
1.400000	3.166293	-8.510788	88.133585	0.161580	1.012847	0.441016	9.008037	1.406736	-11.327888	10.178278	0.177644	23.689702	9.192988	0.000000	10.175569	-2.419915	-0.685226	9.200262	0.160575	25.513013	-0.240447	0.000000	0.218954	0.511878	0.963538	0.406619	0.680797	1.023759	0.359719	1.244580	1.023759	0.250242	1.244580	0.843096	0.203320	1.043821	0.782875	0.125110	0.792899	0.722653	1.563964	5.790464	5.358909	0.000000	0.000000	23.709888	0.949401	0.063745	8.844031	-13.081342	61.061968	51.676432	20.224483	-4.548974	3.535254	25.213875	16.586430	161.959201	-3.397507	-3.966152	44.758252	-27.270494
1.416667	3.227482	-8.571262	88.432703	0.161422	1.012358	0.441227	9.142856	1.426279	-11.526854	10.303802	0.179835	23.893515	9.172396	0.000000	10.557335	-2.475767	-0.608938	9.803861	0.171110	25.607907	-0.285753	0.000000	0.223204	0.517798	0.907821	0.414511	0.688671	0.964560	0.366701	1.258974	0.964560	0.255099	1.258974	0.794343	0.207267	1.055894	0.737604	0.127539	0.802069	0.680866	1.594321	5.857435	5.049027	0.000000	0.000000	23.958269	1.039659	0.193045	9.030100	-12.907928	62.334071	50.973834	21.090712	-3.704463	3.779948	24.401798	15.909157	159.924106	-1.935234	-2.228061	42.593356	-26.172431
1.433333	3.220879	-8.657534	88.673174	0.161561	1.011734	0.441383	9.322988	1.403596	-11.598710	10.474227	0.182810	24.079230	8.989576	0.000000	10.962188	-2.493192	-0.649481	10.414628	0.181770	25.708736	-0.220257	0.000000	0.229340	0.515892	0.840064	0.425908	0.686136	0.892568	0.376783	1.254340	0.892568	0.262113	1.254340	0.735056	0.212965	1.052007	0.682552	0.131045	0.799117	0.630048	1.638154	5.835874	4.672185	0.000000	0.000000	24.268016	1.182920	0.539615	9.286377	-12.634355	63.844128	50.157429	21.995197	-2.794554	3.585733	23.366705	14.758319	155.756863	0.623944	0.819541	39.565317	-24.269979
1.450000	3.159420	-8.757075	88.878575	0.161927	1.011019	0.441481	9.531622	1.341167	-11.604266	10.690202	0.186579	24.250871	8.694516	0.000000	11.376658	-2.479997	-0.803873	11.027270	0.192462	25.826016	-0.003629	0.000000	0.235955	0.507285	0.759481	0.438192	0.674689	0.806948	0.387651	1.233412	0.806948	0.269673	1.233412	0.664546	0.219108	1.034455	0.617078	0.134825	0.785784	0.569611	1.685404	5.738505	4.224005	0.000000	0.000000	24.590479	1.372084	1.050527	9.568793	-12.296457	65.384070	49.301728	23.132600	-1.792890	3.095899	22.181950	13.229323	149.808281	4.103730	4.805487	35.867724	-21.704447
1.466667	3.032422	-8.866588	88.986538	0.162563	1.010250	0.441511	9.774422	1.233286	-11.511163	10.956377	0.191225	24.419371	8.351591	0.000000	11.766744	-2.430020	-1.092447	11.592748	0.202332	25.957535	0.319479	0.000000	0.243056	0.490734	0.678466	0.451379	0.652676	0.720870	0.399317	1.193170	0.720870	0.277789	1.193170	0.593658	0.225702	1.000704	0.551254	0.138882	0.760147	0.508850	1.736124	5.551279	3.773426	0.000000	0.000000	24.902034	1.610980	1.686980	9.886357	-11.930948	66.986553	48.526558	23.905754	-0.809956	2.505632	20.871799	11.411635	142.261993	8.356695	9.943458	31.650804	-18.543223
1.483333	2.864572	-8.980216	89.054908	0.163383	1.009478	0.441472	10.015634	1.105752	-11.327081	11.218476	0.195799	24.551973	7.893430	0.000000	12.129060	-2.349389	-1.392190	12.104761	0.211268	26.090159	0.634885	0.000000	0.250341	0.468611	0.587971	0.464908	0.623253	0.624720	0.411285	1.139381	0.624720	0.286115	1.139381	0.514475	0.232467	0.955592	0.477727	0.143045	0.725879	0.440979	1.788161	5.301024	3.270120	0.000000	0.000000	25.169139	1.902035	2.416608	10.194682	-11.536361	68.411224	47.848588	24.756276	0.010899	2.233290	19.528287	9.366499	133.553324	13.189611	15.491219	27.045691	-15.059356
1.500000	2.647188	-9.095364	89.040464	0.164396	1.008715	0.441346	10.270641	0.946556	-11.059805	11.503048	0.200766	24.695168	7.416699	0.000000	12.440495	-2.234885	-1.741837	12.530978	0.218707	26.236769	0.951105	0.000000	0.258088	0.440316	0.498340	0.479296	0.585621	0.529486	0.424013	1.070585	0.529486	0.294969	1.070585	0.436047	0.239661	0.897893	0.404901	0.147472	0.682050	0.373755	1.843498	4.980948	2.771616	0.000000	0.000000	25.376401	2.250464	3.226707	10.516612	-11.126210	69.793025	47.287539	25.276323	0.677804	2.147677	18.149322	7.175402	123.885712	18.459947	21.723143	22.159359	-11.280824
1.516667	2.390202	-9.208657	88.937935	0.165553	1.007986	0.441126	10.534271	0.762567	-10.713003	11.805269	0.206041	24.861353	6.955946	0.000000	12.687415	-2.095106	-2.171445	12.851613	0.224303	26.410682	1.297536	0.000000	0.265964	0.407588	0.412937	0.493922	0.542092	0.438745	0.436952	0.991010	0.438745	0.303970	0.991010	0.361320	0.246974	0.831154	0.335511	0.151972	0.631354	0.309703	1.899755	4.610718	2.296631	0.000000	0.000000	25.517210	2.647846	4.097507	10.843427	-10.697719	71.105916	46.817062	25.454920	1.190817	2.204207	16.772025	4.904379	113.577183	23.989879	28.486340	17.151250	-7.337359
1.533333	2.091099	-9.312519	88.735722	0.166837	1.007309	0.440801	10.800542	0.554405	-10.249470	12.124302	0.211609	25.033149	6.465081	0.000000	12.844189	-1.926911	-2.702824	13.033412	0.227476	26.595594	1.692103	0.000000	0.273103	0.370392	0.340647	0.507180	0.492622	0.361937	0.448681	0.900572	0.361937	0.312130	0.900572	0.298066	0.253604	0.755304	0.276776	0.156051	0.573738	0.255485	1.950748	4.189953	1.894576	0.000000	0.000000	25.595178	3.076103	4.994507	11.139979	-10.252618	72.303290	46.432708	25.336417	1.541899	2.191477	15.426520	2.607990	102.908406	29.618906	35.574876	12.220815	-3.341474
1.550000	1.777848	-9.418723	88.440923	0.168190	1.006667	0.440437	11.083452	0.349994	-9.673744	12.458559	0.217443	25.216789	5.947781	0.000000	12.952383	-1.762942	-3.378227	13.129917	0.229160	26.827916	2.190406	0.000000	0.280750	0.332718	0.276680	0.521380	0.442515	0.293973	0.461243	0.808970	0.293973	0.320869	0.808970	0.242095	0.260704	0.678478	0.224803	0.160420	0.515380	0.207510	2.005366	3.763771	1.538812	0.000000	0.000000	25.625215	3.554907	5.949957	11.473763	-9.806677	73.497615	46.105734	24.809828	1.780666	2.116101	14.131421	0.346369	92.233442	35.152834	42.800528	7.562759	0.596154
1.566667	1.447495	-9.516275	88.064608	0.169554	1.006088	0.440068	11.373998	0.129613	-9.096930	12.811699	0.223606	25.418909	5.537217	0.000000	12.991316	-1.587725	-4.136156	13.110964	0.228829	27.046678	2.718576	0.000000	0.287506	0.293731	0.234249	0.533927	0.390662	0.248890	0.472343	0.714177	0.248890	0.328590	0.714177	0.204968	0.266978	0.598976	0.190327	0.164281	0.454989	0.175687	2.053624	3.322743	1.302823	0.000000	0.000000	25.625068	4.056087	6.839001	11.758660	-9.376089	74.455753	45.797937	24.133567	2.024479	1.835068	12.989941	-1.816446	82.115223	40.400001	49.747100	3.132024	4.280689
1.583333	1.115138	-9.603906	87.606769	0.170890	1.005577	0.439751	11.674366	-0.087243	-8.477358	13.182987	0.230087	25.611491	5.165230	0.000000	12.970234	-1.414849	-4.968797	12.994262	0.226793	27.232051	3.259638	0.000000	0.292912	0.255556	0.215801	0.543968	0.339890	0.229288	0.481226	0.621359	0.229288	0.334770	0.621359	0.188826	0.271999	0.521130	0.175338	0.167370	0.395856	0.161851	2.092245	2.890901	1.200219	0.000000	0.000000	25.603363	4.580822	7.662073	12.010985	-8.985709	75.227763	45.540689	23.262713	2.207060	1.316159	12.000560	-3.798877	72.830292	45.198713	56.283121	-0.972564	7.609008
